<?xml version="1.0" encoding="UTF-8" standalone="no"?>
<!DOCTYPE svg PUBLIC "-//W3C//DTD SVG 1.1//EN"
 "http://www.w3.org/Graphics/SVG/1.1/DTD/svg11.dtd">
<!-- Generated by graphviz version 8.0.5 (20230430.1635)
 -->
<!-- Pages: 1 -->
<svg width="116pt" height="92pt"
 viewBox="0.00 0.00 115.50 92.24" xmlns="http://www.w3.org/2000/svg" xmlns:xlink="http://www.w3.org/1999/xlink">
<g id="graph0" class="graph" transform="scale(1 1) rotate(0) translate(4 88.24)">
<polygon fill="white" stroke="none" points="-4,4 -4,-88.24 111.5,-88.24 111.5,4 -4,4"/>
<!-- &#45;1 -->
<g id="node1" class="node">
<title>&#45;1</title>
<polygon fill="lightgray" stroke="black" points="23.5,-84.24 0,-84.24 0,-64.99 23.5,-64.99 23.5,-84.24"/>
<text text-anchor="middle" x="11.75" y="-71.69" font-family="Times New Roman,serif" font-size="9.00">&#45;1</text>
</g>
<!-- 0 -->
<g id="node4" class="node">
<title>0</title>
<ellipse fill="lightblue" stroke="black" cx="53.75" cy="-14.5" rx="14.5" ry="14.5"/>
<text text-anchor="middle" x="53.75" y="-11.57" font-family="Times New Roman,serif" font-size="9.00">0</text>
</g>
<!-- &#45;1&#45;&gt;0 -->
<g id="edge1" class="edge">
<title>&#45;1&#45;&gt;0</title>
<path fill="none" stroke="red" stroke-width="0.22" d="M18.31,-64.54C24.08,-56.55 32.66,-44.67 39.94,-34.61"/>
<polygon fill="red" stroke="red" stroke-width="0.22" points="42.63,-36.86 45.65,-26.7 36.96,-32.76 42.63,-36.86"/>
</g>
<!-- &#45;2 -->
<g id="node2" class="node">
<title>&#45;2</title>
<polygon fill="lightgray" stroke="black" points="65.5,-84.24 42,-84.24 42,-64.99 65.5,-64.99 65.5,-84.24"/>
<text text-anchor="middle" x="53.75" y="-71.69" font-family="Times New Roman,serif" font-size="9.00">&#45;2</text>
</g>
<!-- &#45;2&#45;&gt;0 -->
<g id="edge2" class="edge">
<title>&#45;2&#45;&gt;0</title>
<path fill="none" stroke="green" stroke-width="0.44" d="M53.75,-64.54C53.75,-57.74 53.75,-48.13 53.75,-39.21"/>
<polygon fill="green" stroke="green" stroke-width="0.44" points="57.25,-39.27 53.75,-29.27 50.25,-39.27 57.25,-39.27"/>
</g>
<!-- &#45;3 -->
<g id="node3" class="node">
<title>&#45;3</title>
<polygon fill="lightgray" stroke="black" points="107.5,-84.24 84,-84.24 84,-64.99 107.5,-64.99 107.5,-84.24"/>
<text text-anchor="middle" x="95.75" y="-71.69" font-family="Times New Roman,serif" font-size="9.00">&#45;3</text>
</g>
<!-- &#45;3&#45;&gt;0 -->
<g id="edge3" class="edge">
<title>&#45;3&#45;&gt;0</title>
<path fill="none" stroke="green" stroke-width="0.23" d="M89.19,-64.54C83.42,-56.55 74.84,-44.67 67.56,-34.61"/>
<polygon fill="green" stroke="green" stroke-width="0.23" points="70.54,-32.76 61.85,-26.7 64.87,-36.86 70.54,-32.76"/>
</g>
</g>
</svg>
