<?xml version="1.0" encoding="UTF-8" standalone="no"?>
<!DOCTYPE svg PUBLIC "-//W3C//DTD SVG 1.1//EN"
 "http://www.w3.org/Graphics/SVG/1.1/DTD/svg11.dtd">
<!-- Generated by graphviz version 8.0.5 (20230430.1635)
 -->
<!-- Pages: 1 -->
<svg width="121pt" height="92pt"
 viewBox="0.00 0.00 121.25 92.24" xmlns="http://www.w3.org/2000/svg" xmlns:xlink="http://www.w3.org/1999/xlink">
<g id="graph0" class="graph" transform="scale(1 1) rotate(0) translate(4 88.24)">
<polygon fill="white" stroke="none" points="-4,4 -4,-88.24 117.25,-88.24 117.25,4 -4,4"/>
<!-- &#45;1 -->
<g id="node1" class="node">
<title>&#45;1</title>
<polygon fill="lightgray" stroke="black" points="109.5,-84.24 86,-84.24 86,-64.99 109.5,-64.99 109.5,-84.24"/>
<text text-anchor="middle" x="97.75" y="-71.69" font-family="Times New Roman,serif" font-size="9.00">&#45;1</text>
</g>
<!-- 0 -->
<g id="node4" class="node">
<title>0</title>
<ellipse fill="lightblue" stroke="black" cx="51.75" cy="-14.5" rx="14.5" ry="14.5"/>
<text text-anchor="middle" x="51.75" y="-11.57" font-family="Times New Roman,serif" font-size="9.00">0</text>
</g>
<!-- &#45;1&#45;&gt;0 -->
<g id="edge1" class="edge">
<title>&#45;1&#45;&gt;0</title>
<path fill="none" stroke="red" stroke-width="0.17" stroke-dasharray="1,5" d="M90.56,-64.54C84.1,-56.37 74.42,-44.13 66.34,-33.93"/>
<polygon fill="red" stroke="red" stroke-width="0.17" points="69.24,-31.96 60.29,-26.29 63.76,-36.3 69.24,-31.96"/>
</g>
<!-- 1 -->
<g id="node5" class="node">
<title>1</title>
<ellipse fill="white" stroke="black" cx="98.75" cy="-14.5" rx="14.5" ry="14.5"/>
<text text-anchor="middle" x="98.75" y="-11.57" font-family="Times New Roman,serif" font-size="9.00">1</text>
</g>
<!-- &#45;1&#45;&gt;1 -->
<g id="edge4" class="edge">
<title>&#45;1&#45;&gt;1</title>
<path fill="none" stroke="green" stroke-width="0.25" d="M97.91,-64.54C98.02,-57.74 98.19,-48.13 98.34,-39.21"/>
<polygon fill="green" stroke="green" stroke-width="0.25" points="101.84,-39.33 98.51,-29.27 94.84,-39.21 101.84,-39.33"/>
</g>
<!-- &#45;2 -->
<g id="node2" class="node">
<title>&#45;2</title>
<polygon fill="lightgray" stroke="black" points="23.5,-84.24 0,-84.24 0,-64.99 23.5,-64.99 23.5,-84.24"/>
<text text-anchor="middle" x="11.75" y="-71.69" font-family="Times New Roman,serif" font-size="9.00">&#45;2</text>
</g>
<!-- &#45;2&#45;&gt;0 -->
<g id="edge2" class="edge">
<title>&#45;2&#45;&gt;0</title>
<path fill="none" stroke="green" stroke-width="0.2" d="M18,-64.54C23.37,-56.73 31.3,-45.2 38.13,-35.29"/>
<polygon fill="green" stroke="green" stroke-width="0.2" points="40.97,-37.34 43.75,-27.12 35.2,-33.37 40.97,-37.34"/>
</g>
<!-- &#45;3 -->
<g id="node3" class="node">
<title>&#45;3</title>
<polygon fill="lightgray" stroke="black" points="65.5,-84.24 42,-84.24 42,-64.99 65.5,-64.99 65.5,-84.24"/>
<text text-anchor="middle" x="53.75" y="-71.69" font-family="Times New Roman,serif" font-size="9.00">&#45;3</text>
</g>
<!-- &#45;3&#45;&gt;0 -->
<g id="edge3" class="edge">
<title>&#45;3&#45;&gt;0</title>
<path fill="none" stroke="red" stroke-width="0.22" d="M53.44,-64.54C53.2,-57.74 52.87,-48.13 52.57,-39.21"/>
<polygon fill="red" stroke="red" stroke-width="0.22" points="56.07,-39.14 52.22,-29.27 49.07,-39.38 56.07,-39.14"/>
</g>
</g>
</svg>
