<?xml version="1.0" encoding="UTF-8" standalone="no"?>
<!DOCTYPE svg PUBLIC "-//W3C//DTD SVG 1.1//EN"
 "http://www.w3.org/Graphics/SVG/1.1/DTD/svg11.dtd">
<!-- Generated by graphviz version 8.0.5 (20230430.1635)
 -->
<!-- Pages: 1 -->
<svg width="139pt" height="157pt"
 viewBox="0.00 0.00 138.50 157.23" xmlns="http://www.w3.org/2000/svg" xmlns:xlink="http://www.w3.org/1999/xlink">
<g id="graph0" class="graph" transform="scale(1 1) rotate(0) translate(4 153.23)">
<polygon fill="white" stroke="none" points="-4,4 -4,-153.23 134.5,-153.23 134.5,4 -4,4"/>
<!-- &#45;1 -->
<g id="node1" class="node">
<title>&#45;1</title>
<polygon fill="lightgray" stroke="black" points="23.5,-149.23 0,-149.23 0,-129.98 23.5,-129.98 23.5,-149.23"/>
<text text-anchor="middle" x="11.75" y="-136.68" font-family="Times New Roman,serif" font-size="9.00">&#45;1</text>
</g>
<!-- 0 -->
<g id="node4" class="node">
<title>0</title>
<ellipse fill="lightblue" stroke="black" cx="54.75" cy="-14.5" rx="14.5" ry="14.5"/>
<text text-anchor="middle" x="54.75" y="-11.57" font-family="Times New Roman,serif" font-size="9.00">0</text>
</g>
<!-- &#45;1&#45;&gt;0 -->
<g id="edge1" class="edge">
<title>&#45;1&#45;&gt;0</title>
<path fill="none" stroke="red" stroke-width="0.16" stroke-dasharray="1,5" d="M9.35,-129.62C6.01,-115.36 1.27,-86.93 9.75,-64.99 15.04,-51.32 26.05,-39.09 35.86,-30.21"/>
<polygon fill="red" stroke="red" stroke-width="0.16" points="38,-32.99 43.34,-23.84 33.46,-27.66 38,-32.99"/>
</g>
<!-- 1 -->
<g id="node5" class="node">
<title>1</title>
<ellipse fill="white" stroke="black" cx="32.75" cy="-79.49" rx="14.5" ry="14.5"/>
<text text-anchor="middle" x="32.75" y="-76.56" font-family="Times New Roman,serif" font-size="9.00">1</text>
</g>
<!-- &#45;1&#45;&gt;1 -->
<g id="edge4" class="edge">
<title>&#45;1&#45;&gt;1</title>
<path fill="none" stroke="green" stroke-width="0.49" d="M15.03,-129.53C17.63,-122.32 21.38,-111.95 24.76,-102.59"/>
<polygon fill="green" stroke="green" stroke-width="0.49" points="27.98,-103.98 28.09,-93.39 21.4,-101.6 27.98,-103.98"/>
</g>
<!-- &#45;2 -->
<g id="node2" class="node">
<title>&#45;2</title>
<polygon fill="lightgray" stroke="black" points="88.5,-89.11 65,-89.11 65,-69.86 88.5,-69.86 88.5,-89.11"/>
<text text-anchor="middle" x="76.75" y="-76.56" font-family="Times New Roman,serif" font-size="9.00">&#45;2</text>
</g>
<!-- &#45;2&#45;&gt;0 -->
<g id="edge2" class="edge">
<title>&#45;2&#45;&gt;0</title>
<path fill="none" stroke="green" stroke-width="0.15" d="M73.6,-69.46C70.72,-61.23 66.36,-48.73 62.55,-37.83"/>
<polygon fill="green" stroke="green" stroke-width="0.15" points="65.87,-36.73 59.27,-28.44 59.26,-39.04 65.87,-36.73"/>
</g>
<!-- &#45;3 -->
<g id="node3" class="node">
<title>&#45;3</title>
<polygon fill="lightgray" stroke="black" points="130.5,-89.11 107,-89.11 107,-69.86 130.5,-69.86 130.5,-89.11"/>
<text text-anchor="middle" x="118.75" y="-76.56" font-family="Times New Roman,serif" font-size="9.00">&#45;3</text>
</g>
<!-- &#45;3&#45;&gt;0 -->
<g id="edge3" class="edge">
<title>&#45;3&#45;&gt;0</title>
<path fill="none" stroke="red" stroke-width="0.21" d="M109.58,-69.46C99.73,-59.77 83.87,-44.16 71.73,-32.21"/>
<polygon fill="red" stroke="red" stroke-width="0.21" points="74.33,-29.85 64.75,-25.33 69.42,-34.84 74.33,-29.85"/>
</g>
<!-- 1&#45;&gt;0 -->
<g id="edge5" class="edge">
<title>1&#45;&gt;0</title>
<path fill="none" stroke="green" stroke-width="0.23" d="M37.31,-65.44C40.08,-57.5 43.7,-47.14 46.92,-37.92"/>
<polygon fill="green" stroke="green" stroke-width="0.23" points="50.2,-39.13 50.2,-28.53 43.6,-36.82 50.2,-39.13"/>
</g>
</g>
</svg>
